<svg xmlns="http://www.w3.org/2000/svg" xmlns:xlink="http://www.w3.org/1999/xlink" viewBox="0 0 434.5 434.5"><defs><style>.cls-1{fill:url(#linear-gradient);}.cls-2{fill:url(#linear-gradient-2);}</style><linearGradient id="linear-gradient" x1="110.28" y1="411.93" x2="471.65" y2="411.93" gradientUnits="userSpaceOnUse"><stop offset="0" stop-color="#f15266"/><stop offset="0.52" stop-color="#bc74ed"/><stop offset="1" stop-color="#1abee9"/></linearGradient><linearGradient id="linear-gradient-2" x1="376.33" y1="242.24" x2="544.77" y2="242.24" xlink:href="#linear-gradient"/></defs><g id="Layer_2" data-name="Layer 2"><path class="cls-1" d="M291.2,592.7C191,592.47,110,512,110.28,412.87,110.52,311.7,190.74,231,290.9,231.17c99.9.16,181,80.91,180.75,180.05C471.44,512,391,592.93,291.2,592.7ZM159.35,412.11c-1.06,70.53,57.75,130.21,129.42,131.33,73.09,1.15,132.54-56.57,133.85-130,1.28-72.23-56.95-132-130.21-133.15C217.38,279.18,158.88,341.09,159.35,412.11Z" transform="translate(-110.28 -158.2)"/><path class="cls-2" d="M376.33,191.34l34.55-33.14L544.77,292.45,509.7,326.29Z" transform="translate(-110.28 -158.2)"/></g></svg>