<svg width="120" height="120" fill="none" xmlns="http://www.w3.org/2000/svg"><circle cx="60" cy="60" r="60" fill="#16233A"/><circle cx="60" cy="60" r="59" stroke="url(#6cwec6myaa)" stroke-width="2"/><ellipse cx="60" cy="116.5" rx="34" ry="3.5" fill="url(#c45myxfffb)"/><path d="M10.69 52.954C-.849 52.96 4.843 80.85 17 81" stroke="#465C7F" stroke-width="2"/><rect x="12.874" y="50.183" width="5.819" height="4.996" rx="1.619" transform="rotate(90 12.874 50.183)" fill="#21324E"/><rect x="15.007" y="48" width="10.184" height="4.268" rx="1.619" transform="rotate(90 15.007 48)" fill="#465C7F"/><path opacity=".541" transform="rotate(90 15.007 48)" fill="url(#q60m4gk84c)" d="M15.007 48h10.184v4.268H15.007z"/><path d="M110.317 52.954c11.539.006 3.34 29.396-8.817 29.546" stroke="#465C7F" stroke-width="2"/><rect width="5.819" height="4.996" rx="1.619" transform="matrix(0 1 1 0 108.134 50.183)" fill="#21324E"/><rect width="10.184" height="4.268" rx="1.619" transform="matrix(0 1 1 0 106 48)" fill="#465C7F"/><path opacity=".541" transform="matrix(0 1 1 0 106 48)" fill="url(#nc6i68z7rd)" d="M0 0h10.184v4.268H0z"/><path d="M13 15.338c0-1.627.973-3.085 2.493-3.662C22.86 8.877 44.977 1 60.5 1c15.523 0 37.64 7.877 45.006 10.675 1.521.578 2.494 2.036 2.494 3.663V105a4 4 0 01-4 4H17a4 4 0 01-4-4V15.338z" fill="url(#td1o2r60ae)"/><path opacity=".541" d="M13 15.338c0-1.627.973-3.085 2.493-3.662C22.86 8.877 44.977 1 60.5 1c15.523 0 37.64 7.877 45.006 10.675 1.521.578 2.494 2.036 2.494 3.663V105a4 4 0 01-4 4H17a4 4 0 01-4-4V15.338z" fill="url(#xxsrubehff)"/><path d="M21 8.406a3.93 3.93 0 013.153-3.872C31.14 3.143 48.278 0 60.5 0c12.222 0 29.36 3.143 36.347 4.534A3.93 3.93 0 01100 8.406v99.979a4 4 0 01-3.597 3.979l-35.097 3.554a7.895 7.895 0 01-1.612 0l-35.097-3.554A4 4 0 0121 108.385V8.406z" fill="url(#6vo7n66tzg)"/><path opacity=".541" d="M21 8.368a3.93 3.93 0 013.16-3.873C31.15 3.115 48.281 0 60.5 0c12.218 0 29.349 3.114 36.34 4.495A3.93 3.93 0 01100 8.368v100.24a4 4 0 01-3.404 3.955L60.5 118l-36.096-5.437A4 4 0 0121 108.608V8.368z" fill="url(#pfdz52c86h)"/><path d="M25 19.65c0-2.516 1.76-4.66 4.256-4.988C34.492 13.972 44.683 13 60.5 13c15.786 0 25.968.969 31.213 1.658 2.514.33 4.287 2.489 4.287 5.024 0 2.81-2.161 5.14-4.967 5.31C84.478 25.385 72.373 26 60.5 26c-9.501 0-23.212-.66-30.501-1.052-2.814-.15-4.999-2.48-4.999-5.297z" fill="#16233A"/><path opacity=".1" fill="#D9D9D9" d="M35 18h5v1h-5zm22 0h3v1h-3zm8 0h3v1h-3zm12 0h6v1h-6zm11 0h3v1h-3zm-40 0h1v1h-1z"/><g filter="url(#16u54jeoxi)"><path fill="url(#hk45xjne3j)" d="M29 18h5v1h-5z"/><path fill="url(#ijzw0u8atk)" d="M42 18h5v1h-5z"/><path fill="url(#jv6ehgr3vl)" d="M61 18h3v1h-3z"/><path fill="url(#uzumu353em)" d="M70 18h6v1h-6z"/><path fill="url(#6z526alrzn)" d="M84 18h3v1h-3z"/><path fill="url(#87sh4udh8o)" d="M50 18h1v1h-1z"/><path fill="url(#s4r64ikznp)" d="M52 18h3v1h-3z"/></g><path opacity=".1" fill="#D9D9D9" d="M35 21h5v1h-5zm20 0h2v1h-2zm13 0h4v1h-4zm14 0h3v1h-3z"/><g filter="url(#nfqzlkgwuq)"><path fill="url(#zyizyluuyr)" d="M29 21h5v1h-5z"/><path fill="url(#3biz6e43us)" d="M41 21h5v1h-5z"/><path fill="url(#cpns44qu0t)" d="M59 21h3v1h-3z"/><path fill="url(#so2lwx3vnu)" d="M63 21h3v1h-3z"/><path fill="url(#m6aupjb0wv)" d="M74 21h3v1h-3z"/><path fill="url(#asjvz8s1aw)" d="M78 21h3v1h-3z"/><path fill="url(#cif1pd88dx)" d="M86 21h5v1h-5z"/></g><path opacity=".1" fill="#D9D9D9" d="M47 21h1v1h-1zm2 0h5v1h-5z"/><path fill="#0D1523" d="M15 16h2v1h-2zm0 2h2v1h-2zm0 2h2v1h-2zm0 6h2v1h-2zm0 2h2v1h-2zm0 2h2v1h-2zm0 6h2v1h-2zm0 2h2v1h-2zm0 2h2v1h-2z"/><g filter="url(#f943xebzsy)"><path fill="url(#6dkklab52z)" d="M15 46h2v1h-2z"/><path fill="url(#5r2d5msapA)" d="M15 48h2v1h-2z"/><path fill="url(#6gyn5toq5B)" d="M15 50h2v1h-2z"/></g><path fill="#0D1523" d="M15 76h2v1h-2z"/><g filter="url(#sn7gwlrcjC)"><path fill="url(#7cdu7zmtzD)" d="M15 78h2v1h-2z"/></g><path fill="#0D1523" d="M15 80h2v1h-2zm0-24h2v1h-2zm0 2h2v1h-2zm0 2h2v1h-2zm0 26h2v1h-2zm0 2h2v1h-2zm0 2h2v1h-2zm0-24h2v1h-2zm0 2h2v1h-2zm0 2h2v1h-2zm0 26h2v1h-2zm0 2h2v1h-2zm0 2h2v1h-2zm89-84h2v1h-2zm0 2h2v1h-2zm0 2h2v1h-2zm0 6h2v1h-2zm0 2h2v1h-2zm0 2h2v1h-2zm0 6h2v1h-2zm0 2h2v1h-2zm0 2h2v1h-2z"/><g filter="url(#pqwur1j7yE)"><path fill="url(#ot79npmcpF)" d="M104 46h2v1h-2z"/><path fill="url(#ybqrwtuu4G)" d="M104 48h2v1h-2z"/><path fill="url(#4b2wk1lq0H)" d="M104 50h2v1h-2z"/></g><path fill="#0D1523" d="M104 76h2v1h-2zm0 2h2v1h-2zm0 2h2v1h-2zm0-24h2v1h-2zm0 2h2v1h-2zm0 2h2v1h-2zm0 26h2v1h-2zm0 2h2v1h-2z"/><g filter="url(#ofs9nv34sI)"><path fill="url(#dc71au4anJ)" d="M104 90h2v1h-2z"/></g><path fill="#0D1523" d="M104 66h2v1h-2zm0 2h2v1h-2zm0 2h2v1h-2zm0 26h2v1h-2zm0 2h2v1h-2zm0 2h2v1h-2z"/><path opacity=".1" d="M60 30h43v75.539a8 8 0 01-7.443 7.98L60 116V30z" fill="url(#4fr0ao04lK)"/><path fill-rule="evenodd" clip-rule="evenodd" d="M42 61h3.895v1.862H42V61zm32.853 6.528h6.382v1.862h-6.382v-1.862zm-28.958 0h-3.894v1.862h3.894v-1.862zm1.295 0h1.669v1.862H47.19v-1.862zm19.318 0H57.77v1.862h8.738v-1.862zm-11.375 0h-5.106v1.862h5.105v-1.862zm18.89 5.578h2.169v1.863h-2.168v-1.863zm-18.572 0h-5.793v1.863h5.792v-1.863zm-13.451 0h5.792v1.863H42v-1.863zm30.623 0H64.57v1.863h8.052v-1.863zm4.718 5.585h3.894v1.862h-3.894V78.69zm-1.149 0h-2.168v1.862h2.168V78.69zm-19.465 0h8.738v1.862h-8.738V78.69zm-1.276 0h-5.793v1.862h5.793V78.69zm-13.45 0h5.792v1.862H42V78.69zM81.234 84H77.34v1.862h3.894V84zm-7.212 0h2.169v1.862h-2.168V84zm-1.285 0H64v1.862h8.738V84zm-23.08 0H62v1.862H49.658V84zm-1.865 0H42v1.862h5.793V84zm1.253-23h-2.21v1.862h2.21V61zm7.545 0h4.614v1.862H56.59V61zm16.985 0h-5.792v1.862h5.792V61zm-23.55 0h5.106v1.862h-5.106V61z" fill="url(#x8ot645dsL)"/><path opacity=".25" d="M60 27h43V.942L60 0v27z" fill="url(#4h7nflrktM)"/><path d="M108 84h6.5L84 43 60 61" stroke="url(#5o7f2d1r7N)" stroke-width="2.001" stroke-linejoin="round"/><circle opacity=".3" cx="59.397" cy="60.897" r="14.897" transform="rotate(180 59.397 60.897)" fill="url(#tmg88nm56O)"/><circle cx="59.897" cy="61.031" r="2.525" transform="rotate(180 59.897 61.03)" fill="#fff"/><circle cx="83.731" cy="42.731" r="2.866" transform="rotate(-158 83.731 42.731)" fill="#fff"/><circle cx="114" cy="84" transform="rotate(180 114 84)" fill="#fff" r="2"/><path opacity=".2" d="M60 114V61" stroke="url(#7wb9qnyhtP)" stroke-width=".4"/><g filter="url(#yocyduyzoQ)"><circle cx="91.5" cy="9.5" r="1.5" fill="url(#lvcxz07lwR)"/></g><defs><linearGradient id="6cwec6myaa" x1="28.5" y1="2.5" x2="97.5" y2="123" gradientUnits="userSpaceOnUse"><stop stop-color="#9BB0DE"/><stop offset="1" stop-color="#284167"/></linearGradient><linearGradient id="td1o2r60ae" x1="59.941" y1="-16.5" x2="68.564" y2="114.432" gradientUnits="userSpaceOnUse"><stop stop-color="#3B6099"/><stop offset="1" stop-color="#121B2C"/></linearGradient><linearGradient id="6vo7n66tzg" x1="55.388" y1="-3.11" x2="73.434" y2="110.879" gradientUnits="userSpaceOnUse"><stop stop-color="#3B6099"/><stop offset="1" stop-color="#101A2A"/></linearGradient><linearGradient id="hk45xjne3j" x1="27.005" y1="18.5" x2="27.005" y2="20.298" gradientUnits="userSpaceOnUse"><stop stop-color="#fff"/><stop offset="1" stop-color="#2D394B"/></linearGradient><linearGradient id="ijzw0u8atk" x1="40.005" y1="18.5" x2="40.005" y2="20.298" gradientUnits="userSpaceOnUse"><stop stop-color="#fff"/><stop offset="1" stop-color="#2D394B"/></linearGradient><linearGradient id="jv6ehgr3vl" x1="59.803" y1="18.5" x2="59.803" y2="20.298" gradientUnits="userSpaceOnUse"><stop stop-color="#fff"/><stop offset="1" stop-color="#2D394B"/></linearGradient><linearGradient id="uzumu353em" x1="67.606" y1="18.5" x2="67.606" y2="20.298" gradientUnits="userSpaceOnUse"><stop stop-color="#fff"/><stop offset="1" stop-color="#2D394B"/></linearGradient><linearGradient id="6z526alrzn" x1="82.803" y1="18.5" x2="82.803" y2="20.298" gradientUnits="userSpaceOnUse"><stop stop-color="#fff"/><stop offset="1" stop-color="#2D394B"/></linearGradient><linearGradient id="87sh4udh8o" x1="49.601" y1="18.5" x2="49.601" y2="20.298" gradientUnits="userSpaceOnUse"><stop stop-color="#fff"/><stop offset="1" stop-color="#2D394B"/></linearGradient><linearGradient id="s4r64ikznp" x1="50.803" y1="18.5" x2="50.803" y2="20.298" gradientUnits="userSpaceOnUse"><stop stop-color="#fff"/><stop offset="1" stop-color="#2D394B"/></linearGradient><linearGradient id="zyizyluuyr" x1="27.005" y1="21.5" x2="27.005" y2="23.298" gradientUnits="userSpaceOnUse"><stop stop-color="#fff"/><stop offset="1" stop-color="#2D394B"/></linearGradient><linearGradient id="3biz6e43us" x1="39.005" y1="21.5" x2="39.005" y2="23.298" gradientUnits="userSpaceOnUse"><stop stop-color="#fff"/><stop offset="1" stop-color="#2D394B"/></linearGradient><linearGradient id="cpns44qu0t" x1="57.803" y1="21.5" x2="57.803" y2="23.298" gradientUnits="userSpaceOnUse"><stop stop-color="#fff"/><stop offset="1" stop-color="#2D394B"/></linearGradient><linearGradient id="so2lwx3vnu" x1="61.803" y1="21.5" x2="61.803" y2="23.298" gradientUnits="userSpaceOnUse"><stop stop-color="#fff"/><stop offset="1" stop-color="#2D394B"/></linearGradient><linearGradient id="m6aupjb0wv" x1="72.803" y1="21.5" x2="72.803" y2="23.298" gradientUnits="userSpaceOnUse"><stop stop-color="#fff"/><stop offset="1" stop-color="#2D394B"/></linearGradient><linearGradient id="asjvz8s1aw" x1="76.803" y1="21.5" x2="76.803" y2="23.298" gradientUnits="userSpaceOnUse"><stop stop-color="#fff"/><stop offset="1" stop-color="#2D394B"/></linearGradient><linearGradient id="cif1pd88dx" x1="84.005" y1="21.5" x2="84.005" y2="23.298" gradientUnits="userSpaceOnUse"><stop stop-color="#fff"/><stop offset="1" stop-color="#2D394B"/></linearGradient><linearGradient id="6dkklab52z" x1="14.202" y1="46.5" x2="14.202" y2="48.298" gradientUnits="userSpaceOnUse"><stop stop-color="#fff"/><stop offset="1" stop-color="#2D394B"/></linearGradient><linearGradient id="5r2d5msapA" x1="14.202" y1="48.5" x2="14.202" y2="50.298" gradientUnits="userSpaceOnUse"><stop stop-color="#fff"/><stop offset="1" stop-color="#2D394B"/></linearGradient><linearGradient id="6gyn5toq5B" x1="14.202" y1="50.5" x2="14.202" y2="52.298" gradientUnits="userSpaceOnUse"><stop stop-color="#fff"/><stop offset="1" stop-color="#2D394B"/></linearGradient><linearGradient id="7cdu7zmtzD" x1="14.202" y1="78.5" x2="14.202" y2="80.298" gradientUnits="userSpaceOnUse"><stop stop-color="#fff"/><stop offset="1" stop-color="#2D394B"/></linearGradient><linearGradient id="ot79npmcpF" x1="103.202" y1="46.5" x2="103.202" y2="48.298" gradientUnits="userSpaceOnUse"><stop stop-color="#fff"/><stop offset="1" stop-color="#2D394B"/></linearGradient><linearGradient id="ybqrwtuu4G" x1="103.202" y1="48.5" x2="103.202" y2="50.298" gradientUnits="userSpaceOnUse"><stop stop-color="#fff"/><stop offset="1" stop-color="#2D394B"/></linearGradient><linearGradient id="4b2wk1lq0H" x1="103.202" y1="50.5" x2="103.202" y2="52.298" gradientUnits="userSpaceOnUse"><stop stop-color="#fff"/><stop offset="1" stop-color="#2D394B"/></linearGradient><linearGradient id="dc71au4anJ" x1="103.202" y1="90.5" x2="103.202" y2="92.298" gradientUnits="userSpaceOnUse"><stop stop-color="#fff"/><stop offset="1" stop-color="#2D394B"/></linearGradient><linearGradient id="4fr0ao04lK" x1="43.5" y1="51" x2="86.949" y2="41.73" gradientUnits="userSpaceOnUse"><stop stop-color="#8096B8"/><stop offset="1" stop-color="#365079" stop-opacity="0"/></linearGradient><linearGradient id="x8ot645dsL" x1="59" y1="61" x2="59" y2="87.5" gradientUnits="userSpaceOnUse"><stop stop-color="#fff"/><stop offset="1" stop-color="#274066" stop-opacity="0"/></linearGradient><linearGradient id="4h7nflrktM" x1="60" y1="21.6" x2="79.236" y2="34.67" gradientUnits="userSpaceOnUse"><stop stop-color="#748BB1"/><stop offset="1" stop-color="#2F4B78" stop-opacity="0"/></linearGradient><linearGradient id="5o7f2d1r7N" x1="112.5" y1="81" x2="109" y2="90.5" gradientUnits="userSpaceOnUse"><stop stop-color="#D3D9E5"/><stop offset="1" stop-color="#D3D9E5" stop-opacity="0"/></linearGradient><linearGradient id="7wb9qnyhtP" x1="60" y1="61" x2="60" y2="86" gradientUnits="userSpaceOnUse"><stop stop-color="#fff"/><stop offset="1" stop-color="#fff" stop-opacity="0"/></linearGradient><linearGradient id="lvcxz07lwR" x1="88.803" y1="9.5" x2="88.803" y2="14.894" gradientUnits="userSpaceOnUse"><stop stop-color="#fff"/><stop offset="1" stop-color="#2D394B"/></linearGradient><filter id="16u54jeoxi" x="27" y="16" width="62" height="5" filterUnits="userSpaceOnUse" color-interpolation-filters="sRGB"><feFlood flood-opacity="0" result="BackgroundImageFix"/><feColorMatrix in="SourceAlpha" values="0 0 0 0 0 0 0 0 0 0 0 0 0 0 0 0 0 0 127 0" result="hardAlpha"/><feOffset/><feGaussianBlur stdDeviation="1"/><feColorMatrix values="0 0 0 0 0.819608 0 0 0 0 0.847059 0 0 0 0 0.894118 0 0 0 0.5 0"/><feBlend in2="BackgroundImageFix" result="effect1_dropShadow_922_28843"/><feBlend in="SourceGraphic" in2="effect1_dropShadow_922_28843" result="shape"/></filter><filter id="nfqzlkgwuq" x="27" y="19" width="66" height="5" filterUnits="userSpaceOnUse" color-interpolation-filters="sRGB"><feFlood flood-opacity="0" result="BackgroundImageFix"/><feColorMatrix in="SourceAlpha" values="0 0 0 0 0 0 0 0 0 0 0 0 0 0 0 0 0 0 127 0" result="hardAlpha"/><feOffset/><feGaussianBlur stdDeviation="1"/><feColorMatrix values="0 0 0 0 0.819608 0 0 0 0 0.847059 0 0 0 0 0.894118 0 0 0 0.5 0"/><feBlend in2="BackgroundImageFix" result="effect1_dropShadow_922_28843"/><feBlend in="SourceGraphic" in2="effect1_dropShadow_922_28843" result="shape"/></filter><filter id="f943xebzsy" x="9" y="40" width="14" height="17" filterUnits="userSpaceOnUse" color-interpolation-filters="sRGB"><feFlood flood-opacity="0" result="BackgroundImageFix"/><feColorMatrix in="SourceAlpha" values="0 0 0 0 0 0 0 0 0 0 0 0 0 0 0 0 0 0 127 0" result="hardAlpha"/><feOffset/><feGaussianBlur stdDeviation="3"/><feColorMatrix values="0 0 0 0 0.819608 0 0 0 0 0.847059 0 0 0 0 0.894118 0 0 0 1 0"/><feBlend in2="BackgroundImageFix" result="effect1_dropShadow_922_28843"/><feBlend in="SourceGraphic" in2="effect1_dropShadow_922_28843" result="shape"/></filter><filter id="sn7gwlrcjC" x="12" y="75" width="8" height="7" filterUnits="userSpaceOnUse" color-interpolation-filters="sRGB"><feFlood flood-opacity="0" result="BackgroundImageFix"/><feColorMatrix in="SourceAlpha" values="0 0 0 0 0 0 0 0 0 0 0 0 0 0 0 0 0 0 127 0" result="hardAlpha"/><feOffset/><feGaussianBlur stdDeviation="1.5"/><feColorMatrix values="0 0 0 0 0.819608 0 0 0 0 0.847059 0 0 0 0 0.894118 0 0 0 1 0"/><feBlend in2="BackgroundImageFix" result="effect1_dropShadow_922_28843"/><feBlend in="SourceGraphic" in2="effect1_dropShadow_922_28843" result="shape"/></filter><filter id="pqwur1j7yE" x="98" y="40" width="14" height="17" filterUnits="userSpaceOnUse" color-interpolation-filters="sRGB"><feFlood flood-opacity="0" result="BackgroundImageFix"/><feColorMatrix in="SourceAlpha" values="0 0 0 0 0 0 0 0 0 0 0 0 0 0 0 0 0 0 127 0" result="hardAlpha"/><feOffset/><feGaussianBlur stdDeviation="3"/><feColorMatrix values="0 0 0 0 0.819608 0 0 0 0 0.847059 0 0 0 0 0.894118 0 0 0 1 0"/><feBlend in2="BackgroundImageFix" result="effect1_dropShadow_922_28843"/><feBlend in="SourceGraphic" in2="effect1_dropShadow_922_28843" result="shape"/></filter><filter id="ofs9nv34sI" x="101" y="87" width="8" height="7" filterUnits="userSpaceOnUse" color-interpolation-filters="sRGB"><feFlood flood-opacity="0" result="BackgroundImageFix"/><feColorMatrix in="SourceAlpha" values="0 0 0 0 0 0 0 0 0 0 0 0 0 0 0 0 0 0 127 0" result="hardAlpha"/><feOffset/><feGaussianBlur stdDeviation="1.5"/><feColorMatrix values="0 0 0 0 0.819608 0 0 0 0 0.847059 0 0 0 0 0.894118 0 0 0 1 0"/><feBlend in2="BackgroundImageFix" result="effect1_dropShadow_922_28843"/><feBlend in="SourceGraphic" in2="effect1_dropShadow_922_28843" result="shape"/></filter><filter id="yocyduyzoQ" x="86" y="4" width="11" height="11" filterUnits="userSpaceOnUse" color-interpolation-filters="sRGB"><feFlood flood-opacity="0" result="BackgroundImageFix"/><feColorMatrix in="SourceAlpha" values="0 0 0 0 0 0 0 0 0 0 0 0 0 0 0 0 0 0 127 0" result="hardAlpha"/><feOffset/><feGaussianBlur stdDeviation="2"/><feColorMatrix values="0 0 0 0 0.819608 0 0 0 0 0.847059 0 0 0 0 0.894118 0 0 0 1 0"/><feBlend in2="BackgroundImageFix" result="effect1_dropShadow_922_28843"/><feBlend in="SourceGraphic" in2="effect1_dropShadow_922_28843" result="shape"/></filter><radialGradient id="c45myxfffb" cx="0" cy="0" r="1" gradientUnits="userSpaceOnUse" gradientTransform="matrix(0 3.5 -34 0 60 116.5)"><stop/><stop offset="1" stop-opacity="0"/></radialGradient><radialGradient id="q60m4gk84c" cx="0" cy="0" r="1" gradientUnits="userSpaceOnUse" gradientTransform="matrix(0 5 -8.93134 0 19.007 46.872)"><stop stop-color="#D5DBE7"/><stop offset="1" stop-color="#233A64" stop-opacity="0"/></radialGradient><radialGradient id="nc6i68z7rd" cx="0" cy="0" r="1" gradientUnits="userSpaceOnUse" gradientTransform="matrix(0 5 -8.93134 0 4 -1.128)"><stop stop-color="#D5DBE7"/><stop offset="1" stop-color="#233A64" stop-opacity="0"/></radialGradient><radialGradient id="xxsrubehff" cx="0" cy="0" r="1" gradientUnits="userSpaceOnUse" gradientTransform="rotate(77.824 15.41 -1.187) scale(123.273 130.471)"><stop stop-color="#D5DBE7"/><stop offset="1" stop-color="#233A64" stop-opacity="0"/></radialGradient><radialGradient id="pfdz52c86h" cx="0" cy="0" r="1" gradientUnits="userSpaceOnUse" gradientTransform="matrix(48.32953 130.00002 -224.52614 83.47109 33.082 -12)"><stop stop-color="#D5DBE7"/><stop offset="1" stop-color="#233A64" stop-opacity="0"/></radialGradient><radialGradient id="tmg88nm56O" cx="0" cy="0" r="1" gradientUnits="userSpaceOnUse" gradientTransform="translate(59.395 60.903) scale(10.8985)"><stop stop-color="#fff"/><stop offset="1" stop-color="#757575" stop-opacity="0"/></radialGradient></defs></svg>