<svg width="120" height="120" fill="none" xmlns="http://www.w3.org/2000/svg"><mask id="a" style="mask-type:alpha" maskUnits="userSpaceOnUse" x="0" y="0" width="120" height="120"><circle cx="60" cy="60" r="60" fill="#D9D9D9"/></mask><g mask="url(#a)"><circle cx="62" cy="60" r="60" fill="#0C1321"/><g opacity=".08" fill="#67D8BF"><circle cx="59" cy="112" r="1"/><circle cx="23" cy="112" r="1"/><circle cx="35" cy="112" r="1"/><circle cx="47" cy="112" r="1"/><circle cx="71" cy="112" r="1"/><circle cx="11" cy="112" r="1"/><circle cx="83" cy="112" r="1"/><circle cx="95" cy="112" r="1"/><circle cx="107" cy="112" r="1"/><circle cx="119" cy="112" r="1"/><circle cx="59" cy="100" r="1"/><circle cx="23" cy="100" r="1"/><circle cx="35" cy="100" r="1"/><circle cx="47" cy="100" r="1"/><circle cx="71" cy="100" r="1"/><circle cx="11" cy="100" r="1"/><circle cx="83" cy="100" r="1"/><circle cx="95" cy="100" r="1"/><circle cx="107" cy="100" r="1"/><circle cx="119" cy="100" r="1"/><circle cx="59" cy="88" r="1"/><circle cx="23" cy="88" r="1"/><circle cx="35" cy="88" r="1"/><circle cx="47" cy="88" r="1"/><circle cx="71" cy="88" r="1"/><circle cx="11" cy="88" r="1"/><circle cx="83" cy="88" r="1"/><circle cx="95" cy="88" r="1"/><circle cx="107" cy="88" r="1"/><circle cx="119" cy="88" r="1"/><circle cx="59" cy="76" r="1"/><circle cx="23" cy="76" r="1"/><circle cx="35" cy="76" r="1"/><circle cx="47" cy="76" r="1"/><circle cx="71" cy="76" r="1"/><circle cx="11" cy="76" r="1"/><circle cx="83" cy="76" r="1"/><circle cx="95" cy="76" r="1"/><circle cx="107" cy="76" r="1"/><circle cx="119" cy="76" r="1"/><circle cx="59" cy="64" r="1"/><circle cx="23" cy="64" r="1"/><circle cx="35" cy="64" r="1"/><circle cx="47" cy="64" r="1"/><circle cx="71" cy="64" r="1"/><circle cx="11" cy="64" r="1"/><circle cx="83" cy="64" r="1"/><circle cx="95" cy="64" r="1"/><circle cx="107" cy="64" r="1"/><circle cx="119" cy="64" r="1"/><circle cx="59" cy="52" r="1"/><circle cx="23" cy="52" r="1"/><circle cx="35" cy="52" r="1"/><circle cx="47" cy="52" r="1"/><circle cx="71" cy="52" r="1"/><circle cx="11" cy="52" r="1"/><circle cx="83" cy="52" r="1"/><circle cx="95" cy="52" r="1"/><circle cx="107" cy="52" r="1"/><circle cx="119" cy="52" r="1"/><circle cx="59" cy="40" r="1"/><circle cx="23" cy="40" r="1"/><circle cx="35" cy="40" r="1"/><circle cx="47" cy="40" r="1"/><circle cx="71" cy="40" r="1"/><circle cx="11" cy="40" r="1"/><circle cx="83" cy="40" r="1"/><circle cx="95" cy="40" r="1"/><circle cx="107" cy="40" r="1"/><circle cx="119" cy="40" r="1"/><circle cx="59" cy="28" r="1"/><circle cx="23" cy="28" r="1"/><circle cx="35" cy="28" r="1"/><circle cx="47" cy="28" r="1"/><circle cx="71" cy="28" r="1"/><circle cx="11" cy="28" r="1"/><circle cx="83" cy="28" r="1"/><circle cx="95" cy="28" r="1"/><circle cx="107" cy="28" r="1"/><circle cx="119" cy="28" r="1"/><circle cx="59" cy="16" r="1"/><circle cx="23" cy="16" r="1"/><circle cx="35" cy="16" r="1"/><circle cx="47" cy="16" r="1"/><circle cx="71" cy="16" r="1"/><circle cx="11" cy="16" r="1"/><circle cx="83" cy="16" r="1"/><circle cx="95" cy="16" r="1"/><circle cx="107" cy="16" r="1"/><circle cx="119" cy="16" r="1"/><circle cx="59" cy="4" r="1"/><circle cx="23" cy="4" r="1"/><circle cx="35" cy="4" r="1"/><circle cx="47" cy="4" r="1"/><circle cx="71" cy="4" r="1"/><circle cx="11" cy="4" r="1"/><circle cx="83" cy="4" r="1"/><circle cx="95" cy="4" r="1"/><circle cx="107" cy="4" r="1"/><circle cx="119" cy="4" r="1"/></g><path d="M10-6v132M30-6v132M50-6v132M70-6v132M90-6v132M110-6v132m16-116H-6m132 20H-6m132 20H-6m132 20H-6m132 20H-6m132 20H-6" opacity=".07" stroke="#67D8BF" stroke-width=".5"/><g filter="url(#awcxwh9gib)"><circle cx="47" cy="117" r="54" fill="url(#gnjukdkv9c)" shape-rendering="crispEdges"/></g><g filter="url(#eebqiwc1sd)"><circle cx="92" cy="7" r="54" transform="rotate(-180 92 7)" fill="url(#60xlccwfae)" shape-rendering="crispEdges"/></g><path fill-rule="evenodd" clip-rule="evenodd" d="M118.397 56c-4.124 28.835-28.922 51-58.897 51C29.525 107 4.727 84.835.603 56A60.005 60.005 0 000 64.5C0 97.36 26.64 124 59.5 124S119 97.36 119 64.5a59.87 59.87 0 00-.603-8.5z" fill="url(#puzpgbw15f)"/><path opacity=".518" fill-rule="evenodd" clip-rule="evenodd" d="M119 64.5c0-1.41-2.015-1.525-2.413-.172C109.327 88.994 86.517 107 59.5 107 32.484 107 9.673 88.994 2.413 64.328 2.015 62.975 0 63.09 0 64.5 0 97.36 26.64 124 59.5 124S119 97.36 119 64.5z" fill="url(#sdy9a5gubg)"/><path d="M116.587 64.328l-.24-.07.24.07zm-.24-.07C109.118 88.82 86.403 106.75 59.5 106.75v.5c27.13 0 50.037-18.082 57.327-42.851l-.48-.141zM59.5 106.75c-26.903 0-49.618-17.93-56.847-42.492l-.48.14C9.463 89.169 32.37 107.25 59.5 107.25v-.5zm0 17C26.777 123.75.25 97.223.25 64.5h-.5c0 32.999 26.751 59.75 59.75 59.75v-.5zm59.25-59.25c0 32.723-26.527 59.25-59.25 59.25v.5c32.999 0 59.75-26.751 59.75-59.75h-.5zM2.653 64.258a1.557 1.557 0 00-1.612-1.13c-.327.022-.65.145-.893.38-.247.237-.398.575-.398.992h.5c0-.289.101-.494.244-.632a.915.915 0 01.58-.24c.453-.03.938.222 1.1.77l.479-.14zm114.174.14c.161-.548.646-.8 1.1-.77a.914.914 0 01.579.24c.143.138.244.343.244.632h.5c0-.416-.151-.755-.398-.992a1.413 1.413 0 00-.893-.38 1.557 1.557 0 00-1.612 1.13l.48.14z" fill="url(#1z55oh0zch)"/><ellipse opacity=".15" cx="60" cy="110" rx="7" ry="4" fill="url(#ul9vdy7gyi)"/><ellipse opacity=".3" cx="108.352" cy="82.092" rx="9" ry="3.5" transform="rotate(-35.678 108.352 82.092)" fill="url(#v33l102qej)"/><path fill-rule="evenodd" clip-rule="evenodd" d="M.603 57C4.727 28.166 29.525 6 59.5 6c29.975 0 54.773 22.166 58.897 51a59.87 59.87 0 00.603-8.5C119 15.64 92.36-11 59.5-11S0 15.64 0 48.5c0 2.886.205 5.724.603 8.5z" fill="url(#lynnn88xsk)"/><path opacity=".518" fill-rule="evenodd" clip-rule="evenodd" d="M0 48.5c0 1.41 2.015 1.525 2.413.172C9.673 24.006 32.483 6 59.5 6c27.016 0 49.827 18.006 57.087 42.672.398 1.353 2.413 1.239 2.413-.172C119 15.64 92.36-11 59.5-11S0 15.64 0 48.5z" fill="url(#1v3cqc7ysl)"/><path d="M2.413 48.672l.24.07-.24-.07zm.24.07C9.882 24.18 32.597 6.25 59.5 6.25v-.5c-27.13 0-50.037 18.082-57.327 42.851l.48.141zM59.5 6.25c26.903 0 49.618 17.93 56.847 42.492l.48-.14C109.537 23.831 86.63 5.75 59.5 5.75v.5zm0-17c32.723 0 59.25 26.527 59.25 59.25h.5c0-32.999-26.751-59.75-59.75-59.75v.5zM.25 48.5c0-32.723 26.527-59.25 59.25-59.25v-.5C26.501-11.25-.25 15.501-.25 48.5h.5zm116.097.242a1.557 1.557 0 001.612 1.13c.327-.022.65-.145.893-.38.247-.237.398-.575.398-.992h-.5c0 .289-.101.494-.244.632a.916.916 0 01-.579.24 1.056 1.056 0 01-1.1-.77l-.48.14zm-114.174-.14c-.161.548-.646.8-1.1.77a.915.915 0 01-.579-.24C.351 48.994.25 48.79.25 48.5h-.5c0 .416.15.755.398.992.243.235.566.358.893.38a1.557 1.557 0 001.612-1.13l-.48-.14z" fill="url(#j8ugz1ifgm)"/><path opacity=".518" d="M2.413 48.672l.24.07-.24-.07zm.24.07C9.882 24.18 32.597 6.25 59.5 6.25v-.5c-27.13 0-50.037 18.082-57.327 42.851l.48.141zM59.5 6.25c26.903 0 49.618 17.93 56.847 42.492l.48-.14C109.537 23.831 86.63 5.75 59.5 5.75v.5zm0-17c32.723 0 59.25 26.527 59.25 59.25h.5c0-32.999-26.751-59.75-59.75-59.75v.5zM.25 48.5c0-32.723 26.527-59.25 59.25-59.25v-.5C26.501-11.25-.25 15.501-.25 48.5h.5zm116.097.242a1.557 1.557 0 001.612 1.13c.327-.022.65-.145.893-.38.247-.237.398-.575.398-.992h-.5c0 .289-.101.494-.244.632a.916.916 0 01-.579.24 1.056 1.056 0 01-1.1-.77l-.48.14zm-114.174-.14c-.161.548-.646.8-1.1.77a.915.915 0 01-.579-.24C.351 48.994.25 48.79.25 48.5h-.5c0 .417.15.755.398.992.243.235.566.358.893.38a1.557 1.557 0 001.612-1.13l-.48-.14z" fill="url(#kejcida0gn)"/><circle cx="59.446" cy="60.836" r="29.088" fill="url(#f7qiqfs69o)" stroke="url(#46jvfwd9zp)" stroke-width=".465"/><circle opacity=".518" cx="59.446" cy="60.836" r="29.32" fill="url(#qhywlsku4q)"/><circle opacity=".3" cx="59.446" cy="59.905" r="34.673" stroke="url(#mn6t6osqor)" stroke-width=".465"/><ellipse opacity=".5" cx="60" cy="59.351" rx="65.378" ry="21.054" fill="url(#a9f829cg0s)"/><g filter="url(#vudrgvfobt)"><path fill-rule="evenodd" clip-rule="evenodd" d="M16.833 49.083l-1.126 5.801h15.084l-.507 2.035h-15.06L13 69.489h6.075l1.197-6.955h7.689s3.915.051 5.478-1.392c1.563-1.443 2.792-3.472 3.12-5.359.33-1.887.593-4.268-2.366-6.052-.91-.549-1.18-.557-3.416-.622l-.853-.026c-2.863-.09-13.09 0-13.09 0zm23.145 0h21.218L60 54.831H38.783l1.195-5.748zm18.378 14.658H37.14l-1.195 5.748h21.217l1.195-5.748zm-19.573-7.017h15.93l-1.196 5.005h-15.93l1.196-5.005zM59.246 69.49l1.07-5.748H75.2l.439-2.012s-10.557-.293-12.052-1.037c-1.496-.745-3.587-4.325-1.023-7.924 2.564-3.6 6.613-3.685 6.613-3.685H107s0 1.772-1.945 3.685-5.113 2.063-5.113 2.063h-5.95L91.27 69.49h-6.137l2.778-14.658H67.686v1.04h9.46c2.922 0 5.227 2.208 4.212 7.323-1.016 5.116-6.546 6.295-6.546 6.295H59.246z" fill="url(#z259z27q5u)"/></g><path d="M99.892 66.324L108.5 79 60 108V90" stroke="url(#p115zxkoqv)" stroke-width="2.216" stroke-linejoin="round"/><ellipse opacity=".173" cx="100.446" cy="65.657" rx="12.743" ry="12.63" fill="url(#099xte8rfw)"/><circle opacity=".29" cx="100.446" cy="65.77" r="22.716" fill="url(#1wjdbyjb5x)"/><circle cx="99.397" cy="65.784" r="3.189" fill="url(#k8acnt3oay)"/><circle cx="60" cy="108.324" r="3.324" fill="url(#avh873decz)"/><ellipse cx="108.317" cy="79.295" rx="3.317" ry="3.295" fill="url(#gz1y52af0A)"/></g><circle cx="60" cy="60" r="59" stroke="url(#hb9hi4r2yB)" stroke-width="2"/><defs><linearGradient id="gnjukdkv9c" x1="-17.5" y1="69" x2="59" y2="126" gradientUnits="userSpaceOnUse"><stop stop-color="#5ED3B9"/><stop offset="1" stop-color="#6EDCC4" stop-opacity="0"/></linearGradient><linearGradient id="60xlccwfae" x1="12.5" y1="-33.5" x2="118" y2="23" gradientUnits="userSpaceOnUse"><stop stop-color="#5ED3B9"/><stop offset="1" stop-color="#6EDCC4" stop-opacity="0"/></linearGradient><linearGradient id="puzpgbw15f" x1="66.5" y1="53" x2="65" y2="118.5" gradientUnits="userSpaceOnUse"><stop stop-color="#5B79A2"/><stop offset="1" stop-color="#182A49"/></linearGradient><linearGradient id="1z55oh0zch" x1="19.5" y1="103.5" x2="103.5" y2="103.5" gradientUnits="userSpaceOnUse"><stop stop-color="#97EDDD" stop-opacity="0"/><stop offset=".491" stop-color="#9AFFEB"/><stop offset="1" stop-color="#92EBDA" stop-opacity="0"/></linearGradient><linearGradient id="lynnn88xsk" x1="52.5" y1="60" x2="54" y2="-5.5" gradientUnits="userSpaceOnUse"><stop stop-color="#5B79A2"/><stop offset="1" stop-color="#182A49"/></linearGradient><linearGradient id="j8ugz1ifgm" x1="99.5" y1="11.994" x2="15.5" y2="11.994" gradientUnits="userSpaceOnUse"><stop stop-color="#97EDDD" stop-opacity="0"/><stop offset=".491" stop-color="#9AFFEB"/><stop offset="1" stop-color="#92EBDA" stop-opacity="0"/></linearGradient><linearGradient id="kejcida0gn" x1="99.5" y1="9.5" x2="15.5" y2="9.5" gradientUnits="userSpaceOnUse"><stop stop-color="#97EDDD" stop-opacity="0"/><stop offset=".491" stop-color="#9AFFEB"/><stop offset="1" stop-color="#92EBDA" stop-opacity="0"/></linearGradient><linearGradient id="f7qiqfs69o" x1="45.041" y1="34.419" x2="79.946" y2="85.946" gradientUnits="userSpaceOnUse"><stop stop-color="#1B283D"/><stop offset="1"/></linearGradient><linearGradient id="46jvfwd9zp" x1="24.541" y1="31.516" x2="70.15" y2="68.748" gradientUnits="userSpaceOnUse"><stop stop-color="#6BDAC2"/><stop offset="1" stop-color="#6BDAC2" stop-opacity="0"/></linearGradient><linearGradient id="mn6t6osqor" x1="33.377" y1="27.651" x2="107.607" y2="103.206" gradientUnits="userSpaceOnUse"><stop stop-color="#6BDAC2"/><stop offset="1" stop-color="#6BDAC2" stop-opacity="0"/></linearGradient><linearGradient id="z259z27q5u" x1="13" y1="49.043" x2="13" y2="69.489" gradientUnits="userSpaceOnUse"><stop stop-color="#B4FFF3"/><stop offset=".482" stop-color="#8CE6D4"/><stop offset="1" stop-color="#6EDCC4"/></linearGradient><linearGradient id="p115zxkoqv" x1="70" y1="88.5" x2="63" y2="84" gradientUnits="userSpaceOnUse"><stop stop-color="#6EDCC4"/><stop offset="1" stop-color="#6EDCC4" stop-opacity="0"/></linearGradient><linearGradient id="k8acnt3oay" x1="95.182" y1="66.527" x2="96.667" y2="74.958" gradientUnits="userSpaceOnUse"><stop stop-color="#9EFCE8"/><stop offset="1" stop-color="#1AAB8B"/></linearGradient><linearGradient id="avh873decz" x1="56.676" y1="105.758" x2="56.676" y2="112.407" gradientUnits="userSpaceOnUse"><stop stop-color="#6EDCC4"/><stop offset="1" stop-color="#1AAB8B"/></linearGradient><linearGradient id="gz1y52af0A" x1="105" y1="76.751" x2="105" y2="83.341" gradientUnits="userSpaceOnUse"><stop stop-color="#6EDCC4"/><stop offset="1" stop-color="#1AAB8B"/></linearGradient><linearGradient id="hb9hi4r2yB" x1="-25.227" y1="22.708" x2="4.038" y2="134.632" gradientUnits="userSpaceOnUse"><stop stop-color="#6CDBC3"/><stop offset="1" stop-color="#1EAD8E"/></linearGradient><radialGradient id="sdy9a5gubg" cx="0" cy="0" r="1" gradientUnits="userSpaceOnUse" gradientTransform="matrix(-2 51.2638 -65.7334 -2.56452 61 96.808)"><stop stop-color="#26F9FF" stop-opacity=".827"/><stop offset="1" stop-color="#3CE4C0" stop-opacity=".01"/></radialGradient><radialGradient id="ul9vdy7gyi" cx="0" cy="0" r="1" gradientUnits="userSpaceOnUse" gradientTransform="matrix(0 4 -7 0 60 110)"><stop/><stop offset="1" stop-opacity="0"/></radialGradient><radialGradient id="v33l102qej" cx="0" cy="0" r="1" gradientUnits="userSpaceOnUse" gradientTransform="matrix(0 3.5 -9 0 108.352 82.092)"><stop/><stop offset="1" stop-opacity="0"/></radialGradient><radialGradient id="1v3cqc7ysl" cx="0" cy="0" r="1" gradientUnits="userSpaceOnUse" gradientTransform="matrix(2 -51.2638 65.7334 2.56452 58 16.192)"><stop stop-color="#26F9FF" stop-opacity=".827"/><stop offset="1" stop-color="#3CE4C0" stop-opacity=".01"/></radialGradient><radialGradient id="qhywlsku4q" cx="0" cy="0" r="1" gradientUnits="userSpaceOnUse" gradientTransform="rotate(34.725 -25.986 15.147) scale(61.4431)"><stop stop-color="#26F9FF" stop-opacity=".827"/><stop offset="1" stop-color="#3CE4C0" stop-opacity=".01"/></radialGradient><radialGradient id="a9f829cg0s" cx="0" cy="0" r="1" gradientUnits="userSpaceOnUse" gradientTransform="matrix(0 21.0541 -65.3784 0 60 59.351)"><stop stop-color="#6ADAC2"/><stop offset="1" stop-color="#6ADAC2" stop-opacity="0"/></radialGradient><radialGradient id="099xte8rfw" cx="0" cy="0" r="1" gradientUnits="userSpaceOnUse" gradientTransform="matrix(9.59489 0 0 9.50998 99.296 66.89)"><stop stop-color="#6EDCC4"/><stop offset="1" stop-color="#00FFC7" stop-opacity=".01"/></radialGradient><radialGradient id="1wjdbyjb5x" cx="0" cy="0" r="1" gradientUnits="userSpaceOnUse" gradientTransform="translate(98.395 67.986) scale(17.1039)"><stop stop-color="#6EDCC4"/><stop offset="1" stop-color="#00FFC7" stop-opacity=".01"/></radialGradient><filter id="awcxwh9gib" x="-87" y="36" width="188" height="182" filterUnits="userSpaceOnUse" color-interpolation-filters="sRGB"><feFlood flood-opacity="0" result="BackgroundImageFix"/><feColorMatrix in="SourceAlpha" values="0 0 0 0 0 0 0 0 0 0 0 0 0 0 0 0 0 0 127 0" result="hardAlpha"/><feMorphology radius="14" operator="dilate" in="SourceAlpha" result="effect1_dropShadow_1875_25125"/><feOffset dx="-43" dy="10"/><feGaussianBlur stdDeviation="11.5"/><feComposite in2="hardAlpha" operator="out"/><feColorMatrix values="0 0 0 0 0.4 0 0 0 0 0.843137 0 0 0 0 0.745098 0 0 0 0.4 0"/><feBlend in2="BackgroundImageFix" result="effect1_dropShadow_1875_25125"/><feBlend in="SourceGraphic" in2="effect1_dropShadow_1875_25125" result="shape"/></filter><filter id="eebqiwc1sd" x="38" y="-47" width="172" height="147" filterUnits="userSpaceOnUse" color-interpolation-filters="sRGB"><feFlood flood-opacity="0" result="BackgroundImageFix"/><feColorMatrix in="SourceAlpha" values="0 0 0 0 0 0 0 0 0 0 0 0 0 0 0 0 0 0 127 0" result="hardAlpha"/><feMorphology radius="6" in="SourceAlpha" result="effect1_dropShadow_1875_25125"/><feOffset dx="47" dy="22"/><feGaussianBlur stdDeviation="11.5"/><feComposite in2="hardAlpha" operator="out"/><feColorMatrix values="0 0 0 0 0.4 0 0 0 0 0.843137 0 0 0 0 0.745098 0 0 0 0.4 0"/><feBlend in2="BackgroundImageFix" result="effect1_dropShadow_1875_25125"/><feBlend in="SourceGraphic" in2="effect1_dropShadow_1875_25125" result="shape"/></filter><filter id="vudrgvfobt" x="-4.195" y="31.848" width="128.39" height="54.837" filterUnits="userSpaceOnUse" color-interpolation-filters="sRGB"><feFlood flood-opacity="0" result="BackgroundImageFix"/><feColorMatrix in="SourceAlpha" values="0 0 0 0 0 0 0 0 0 0 0 0 0 0 0 0 0 0 127 0" result="hardAlpha"/><feOffset/><feGaussianBlur stdDeviation="8.598"/><feColorMatrix values="0 0 0 0 0.403922 0 0 0 0 0.843137 0 0 0 0 0.74902 0 0 0 0.42447 0"/><feBlend in2="BackgroundImageFix" result="effect1_dropShadow_1875_25125"/><feBlend in="SourceGraphic" in2="effect1_dropShadow_1875_25125" result="shape"/></filter></defs></svg>