<svg width="120" height="120" fill="none" xmlns="http://www.w3.org/2000/svg"><circle cx="60" cy="60" r="60" fill="url(#sh0jamjeea)"/><circle cx="60" cy="60" r="59" stroke="url(#n8brb5qbsb)" stroke-width="2"/><path fill-rule="evenodd" clip-rule="evenodd" d="M60 119c32.032 0 58-26.415 58-59S92.032 1 60 1 2 27.415 2 60s25.968 59 58 59zm0-8c30.376 0 55-22.834 55-51S90.376 9 60 9 5 31.834 5 60s24.624 51 55 51z" fill="url(#2wqfe107cc)"/><path opacity=".5" d="M104.024 70.116c-6.44 24.035-31.145 38.298-55.18 31.858-24.035-6.44-38.298-31.145-31.858-55.18 6.44-24.034 31.145-38.297 55.18-31.857 24.034 6.44 38.298 31.145 31.858 55.18z" fill="url(#fqyqq0opmd)"/><path d="M24.176 45.46a3.034 3.034 0 00-5.256-3.035L2.603 70.686a3.034 3.034 0 005.256 3.035l16.317-28.262z" fill="url(#8xo2n986ae)"/><rect width="6.069" height="38.702" rx="3.034" transform="scale(1 -1) rotate(-26.451 -108.877 -240.142)" fill="url(#titmuylhlf)"/><mask id="a" style="mask-type:alpha" maskUnits="userSpaceOnUse" x="13" y="13" width="94" height="94"><circle cx="60.087" cy="59.904" fill="url(#79rw7t9ycg)" r="46.443"/></mask><g mask="url(#a)"><circle cx="60.157" cy="59.974" transform="rotate(.298 60.157 59.974)" fill="url(#2ck8924lki)" r="46.443"/><path fill-rule="evenodd" clip-rule="evenodd" d="M12.303 67.424c.128.733.274 1.465.437 2.198 5.73 25.666 31.18 41.827 56.845 36.098a47.421 47.421 0 0027.368-17.438c-11.444 5.288-28.63 6.187-46.574 1.407-16.696-4.449-30.378-12.837-38.076-22.264zm94.473-10.53a48.042 48.042 0 00-1.093-8.018c-5.73-25.665-31.18-41.827-56.845-36.098-12.125 2.707-22.13 9.815-28.706 19.269 11.438-5.018 28.305-5.79 45.898-1.103 18.846 5.02 33.85 15.06 40.746 25.95z" fill="url(#gis5b4nmkj)"/><ellipse cx="78.316" cy="99.779" rx="18.274" ry="10.057" transform="rotate(-52.992 78.316 99.779)" fill="url(#9rpgxclmzk)"/><ellipse cx="44.066" cy="16.179" rx="18.274" ry="10.057" transform="rotate(-52.992 44.066 16.18)" fill="url(#09qooes9zl)"/><path fill-rule="evenodd" clip-rule="evenodd" d="M61.542 107.157c25.476-.933 45.842-21.88 45.842-47.583a47.396 47.396 0 00-8.937-27.776c3.204 12.752.972 29.278-7.19 44.956-7.5 14.406-18.457 25.121-29.715 30.403zm-1.006-95.191c-.255-.004-.51-.006-.767-.006-26.297 0-47.614 21.317-47.614 47.614a47.393 47.393 0 007.732 26.02c-2.172-12.275.312-27.455 7.84-41.914 8.186-15.724 20.49-27.05 32.81-31.714z" fill="url(#j7mbbif2em)"/><rect width="6.069" height="20.125" rx="3.034" transform="scale(1 -1) rotate(-.786 -3344.177 -4210.066)" fill="url(#p5s821jpsn)"/><g filter="url(#ncal7fkgdo)"><rect width="6.069" height="5.262" rx="2.631" transform="scale(1 -1) rotate(-.786 -3344.214 -4210.066)" fill="url(#pgn207o6tp)"/></g><rect x="55.567" y="39.327" width="10.063" height="3.096" rx="1.548" transform="rotate(.786 55.567 39.327)" fill="url(#4145j1dn7q)"/><path fill-rule="evenodd" clip-rule="evenodd" d="M64.343 60.055l-.17.248 1.426 1.842.114-.27-1.37-1.82z" fill="#1C2E49"/><ellipse opacity=".814" cx="98.5" cy="39.976" rx="8.902" ry="14.196" transform="rotate(-49.446 98.5 39.976)" fill="url(#lvsc64dyyr)"/><ellipse opacity=".814" cx="74.234" cy="30.512" rx="8.853" ry="18.432" transform="rotate(-90 74.234 30.512)" fill="url(#9qbqfl4pds)"/><ellipse opacity=".814" cx="28.953" cy="88.276" rx="8.853" ry="18.432" transform="rotate(-66.22 28.953 88.276)" fill="url(#h50ifrju3t)"/><ellipse cx="62.496" cy="97.805" rx="9.958" ry="10.057" transform="rotate(-10.525 62.496 97.805)" fill="url(#v9i0cp1oyu)"/><ellipse cx="13.957" cy="75.244" rx="8.902" ry="9.289" transform="rotate(-9.444 13.957 75.244)" fill="url(#34su81t39v)"/><rect width="6.069" height="38.702" rx="3.034" transform="scale(1 -1) rotate(86.214 69.49 40.824)" fill="url(#8ycls5bdvw)"/><path d="M116.542 37.045c3.561-1.157 2.723-5.92-1.605-5.813-4.328.106-5.384 6.187-7.111 10.646-1.574 4.06-4.35 6.32-5.948 8.294-1.758 2.172-6.475 3.71-7.754-1.778-.768-3.296 1.252-5.059 1.252-5.059" stroke="#1E2F4D" stroke-width="1.548"/><path d="M102.757 23.546c-4.22-2.695-9.84-1.207-12.175 3.223A8.556 8.556 0 0092.1 36.803l15.834 15.849c1.887 1.888 5.159 1.505 6.212-.948 1.702-3.965 2.567-7.567 3.17-10.944.711-3.979.797-5.875.74-6.77-.034-.538-.396-.927-.85-1.217l-14.448-9.228z" fill="url(#jnbifpci3x)"/><rect x="95.253" y="41.366" width="2.923" height="3.069" rx="1.3" transform="rotate(41.471 95.253 41.366)" fill="#203455"/><rect x="95.11" y="39.874" width="5.115" height="2.046" rx="1.023" transform="rotate(41.471 95.11 39.874)" fill="url(#jjbxq8oxky)"/><rect x="95.11" y="39.874" width="5.115" height="2.046" rx="1.023" transform="rotate(41.471 95.11 39.874)" fill="#375A8A"/><rect width="15.605" height="29.042" rx="7.802" transform="scale(-1 1) rotate(87.214 -36.709 -20.4)" fill="url(#veq8e3mr1z)"/><ellipse opacity=".814" cx="64.663" cy="25.674" rx="8.902" ry="10.911" transform="rotate(-88.214 64.663 25.674)" fill="url(#1xj2i31g8A)"/><path d="M76.412 35.593c.017 4.918-6.008 2.117-8.017-1.98" stroke="#1E2F4D" stroke-width="1.548"/><g opacity=".85"><rect x="77.268" y="36.177" width="1.749" height="1.836" rx=".778" transform="rotate(-178.224 77.268 36.177)" fill="#21324E"/><rect x="77.961" y="34.974" width="3.061" height="1.224" rx=".612" transform="rotate(-178.224 77.96 34.974)" fill="url(#bpu3iebemB)"/><rect x="77.961" y="34.974" width="3.061" height="1.224" rx=".612" transform="rotate(-178.224 77.96 34.974)" fill="#375A8A"/></g><rect x="66.023" y="33.388" width="2.923" height="3.069" rx="1.3" transform="rotate(-38.21 66.023 33.388)" fill="#203455"/><rect x="64.529" y="33.262" width="5.115" height="2.046" rx="1.023" transform="rotate(-38.21 64.529 33.262)" fill="url(#wxjmvx3xtC)"/><rect x="64.529" y="33.262" width="5.115" height="2.046" rx="1.023" transform="rotate(-38.21 64.529 33.262)" fill="#375A8A"/><circle cx="9.103" cy="9.103" transform="scale(1 -1) rotate(-87.786 17.381 -35.125)" fill="url(#t3ytc37emD)" r="9.103"/><circle cx="61.142" cy="25.238" transform="rotate(-33.214 61.142 25.238)" fill="#1B283E" r="5.031"/><g filter="url(#op0s0le12E)"><circle cx="61.142" cy="25.238" transform="rotate(-33.214 61.142 25.238)" fill="url(#018bvil7eF)" r="2.013"/></g><rect width="6.069" height="20.125" rx="3.034" transform="scale(-1 1) rotate(.332 -12457.347 -10868.57)" fill="url(#k0gmy2oisG)"/><g filter="url(#6i2whjuxzH)"><rect width="6.069" height="5.608" rx="2.804" transform="scale(1 -1) rotate(-.786 -5601.397 -4202.664)" fill="url(#tw1hkkne9I)"/></g><rect x="65.223" y="78.944" width="10.063" height="3.096" rx="1.548" transform="rotate(179.668 65.223 78.944)" fill="url(#w79ok5rz6J)"/><path fill-rule="evenodd" clip-rule="evenodd" d="M56.044 58.383l.166-.251-1.462-1.814-.11.273 1.406 1.792z" fill="#1C2E49"/><rect width="6.069" height="38.702" rx="3.034" transform="scale(-1 1) rotate(87.332 -54.603 36.75)" fill="url(#jx0b0pwd6K)"/><path d="M5.142 84.338C1.65 85.691 2.75 90.4 7.065 90.055c4.316-.346 5.034-6.476 6.513-11.023 1.347-4.141 3.994-6.55 5.481-8.61 1.636-2.265 6.26-4.06 7.84 1.348.95 3.249-1.657 4.846-1.657 4.846" stroke="#1E2F4D" stroke-width="1.548"/><path d="M18.379 97.19c4.27 2.613 9.862 1.016 12.11-3.459a8.556 8.556 0 00-1.713-10.004l-16.14-15.536c-1.923-1.852-5.188-1.405-6.193 1.07-1.624 3.996-2.418 7.614-2.955 11.002-.633 3.992-.683 5.89-.608 6.784.045.537.414.919.874 1.2l14.625 8.944z" fill="url(#qgdq37r5aL)"/><rect x="25.097" y="78.821" width="2.923" height="3.069" rx="1.3" transform="rotate(-135.712 25.097 78.82)" fill="#203455"/><rect x="25.167" y="80.317" width="5.115" height="2.046" rx="1.023" transform="rotate(-135.712 25.167 80.317)" fill="url(#dau3exthtM)"/><rect x="25.167" y="80.317" width="5.115" height="2.046" rx="1.023" transform="rotate(-135.712 25.167 80.317)" fill="#375A8A"/><rect width="15.605" height="29.042" rx="7.802" transform="scale(1 -1) rotate(88.332 85.766 -17.329)" fill="url(#ve07eqxr2N)"/><ellipse opacity=".814" cx="56.536" cy="95.124" rx="8.902" ry="10.501" transform="rotate(90.668 56.536 95.124)" fill="url(#tyw5pqvacO)"/><path d="M44.676 84.743c-.114-4.916 5.774-2.346 7.863 1.71" stroke="#1E2F4D" stroke-width="1.548"/><g opacity=".85"><rect x="43.811" y="83.975" width="1.749" height="1.836" rx=".778" transform="rotate(.657 43.811 83.975)" fill="#21324E"/><rect x="43.142" y="85.192" width="3.061" height="1.224" rx=".612" transform="rotate(.657 43.142 85.192)" fill="url(#4gqndixsxP)"/><rect x="43.142" y="85.192" width="3.061" height="1.224" rx=".612" transform="rotate(.657 43.142 85.192)" fill="#375A8A"/></g><rect x="54.915" y="86.63" width="2.923" height="3.069" rx="1.3" transform="rotate(140.672 54.915 86.63)" fill="#203455"/><rect x="56.411" y="86.725" width="5.115" height="2.046" rx="1.023" transform="rotate(140.672 56.41 86.725)" fill="url(#3eejopgpsQ)"/><rect x="56.411" y="86.725" width="5.115" height="2.046" rx="1.023" transform="rotate(140.672 56.41 86.725)" fill="#375A8A"/><circle cx="9.103" cy="9.103" transform="scale(-1 1) rotate(-86.668 20.038 88.48)" fill="url(#bfndzk6kzR)" r="9.103"/><circle cx="59.953" cy="94.687" transform="rotate(145.668 59.953 94.687)" fill="#1B283E" r="5.031"/><g filter="url(#pyppvyaigS)"><circle cx="59.953" cy="94.689" r="2.013" transform="rotate(145.668 59.953 94.689)" fill="url(#w4k8e1lonT)"/></g></g><g filter="url(#lgz38dfo8U)"><path fill-rule="evenodd" clip-rule="evenodd" d="M50.988 49.278l3.798 2.186 3.794-2.187-3.794-2.185-3.798 2.186zm17.472 4.764l-3.796-2.186 3.797-2.186 3.796 2.185-3.796 2.187zm-9.5 15.432l.006.003-.006-.003zm0 0l-8.35-4.808V49.933l1.595.917 2.203 1.267v10.19c0 .01 0 .019.003.028v.029a.267.267 0 00.006.042l.012.03.006.013.005.013a.16.16 0 00.034.06l.01.013.01.013a.19.19 0 00.021.027.133.133 0 00.022.018l.016.011.014.012a.206.206 0 00.026.02h.004l4.363 2.47v4.368zm.764-4.366v4.37l8.355-4.81v-4.33l-2.167 1.237-6.189 3.533zm-.38-.657l-3.79-2.145 3.984-2.292 4.37-2.513 3.793 2.184-2.784 1.589-5.573 3.174v.003zM55.167 52.12v9.532h.001l1.595-.916 2.203-1.268v-9.532l-1.595.918-2.204 1.266zm13.673 6.907v-4.326l2.204-1.27 1.595-.917v4.327l-3.798 2.186zm-2.352-.92l1.594.918V54.7l-2.203-1.27-1.595-.918v4.327l2.204 1.268z" fill="url(#2w2u7sna6V)"/></g><g filter="url(#tjnz2bdk0W)"><rect x="23.66" y="39.176" width="1.925" height="1.548" rx=".774" transform="rotate(-62.997 23.66 39.176)" fill="#3ABEA1"/></g><g filter="url(#td7oryaywX)"><rect x="20.847" y="44.695" width="2.322" height="1.548" rx=".774" transform="rotate(-62.997 20.847 44.695)" fill="#F34879"/></g><g filter="url(#vewl78tbgY)"><rect x="22.253" y="41.936" width="2.322" height="1.548" rx=".774" transform="rotate(-62.997 22.253 41.936)" fill="#F4A220"/></g><g filter="url(#d0s31fuh3Z)"><rect x="94.7" y="81.165" width="2.322" height="1.548" rx=".774" transform="rotate(-62.536 94.7 81.165)" fill="#111A2B"/></g><g filter="url(#9acj2siruaa)"><rect x="96.128" y="78.416" width="2.322" height="1.548" rx=".774" transform="rotate(-62.536 96.128 78.416)" fill="#37C5FA"/></g><path d="M28.095 42.985l6.055 3.364 1.624 28.164 23.995-9.289" stroke="url(#mpbz2gdpoab)" stroke-width="1.549"/><circle cx="60.157" cy="65.221" transform="rotate(90 60.157 65.22)" fill="url(#jaru93tgxac)" r="5.418"/><circle cx="59.808" cy="64.772" transform="rotate(-105.009 59.808 64.772)" fill="url(#jy2qd08qvad)" r="2.074"/><circle cx="34.191" cy="46.789" transform="rotate(-105.009 34.191 46.79)" fill="url(#1kb2ioab8ae)" r="2.246"/><circle cx="35.5" cy="74.624" transform="rotate(-105.009 35.5 74.624)" fill="url(#xaf0fyk1kaf)" r="2.62"/><path d="M2.769 68.455a8.998 8.998 0 0112.72-.36L28.836 80.71a8.998 8.998 0 01-12.361 13.079L3.127 81.175a8.998 8.998 0 01-.359-12.72z" fill="url(#e0q5oclulag)"/><path d="M91.301 21.143a8.998 8.998 0 0112.724.22l12.759 13.208a8.998 8.998 0 11-12.944 12.504L91.082 33.867a8.998 8.998 0 01.22-12.724z" fill="url(#i2j4ifrayah)"/><defs><linearGradient id="n8brb5qbsb" x1="-25.227" y1="22.708" x2="4.038" y2="134.632" gradientUnits="userSpaceOnUse"><stop stop-color="#C47EDD"/><stop offset="1" stop-color="#7850D1"/></linearGradient><linearGradient id="2wqfe107cc" x1="32.5" y1="12" x2="102" y2="102" gradientUnits="userSpaceOnUse"><stop stop-color="#3F679E"/><stop offset="1" stop-color="#20314E"/></linearGradient><linearGradient id="8xo2n986ae" x1="17.3" y1="55.291" x2="10.483" y2="49.931" gradientUnits="userSpaceOnUse"><stop stop-color="#375A8A"/><stop offset="1" stop-color="#142239"/></linearGradient><linearGradient id="titmuylhlf" x1="-2.042" y1="9.643" x2="9.401" y2="7.538" gradientUnits="userSpaceOnUse"><stop stop-color="#375A8A"/><stop offset="1" stop-color="#142239"/></linearGradient><linearGradient id="gis5b4nmkj" x1="46.369" y1="104.966" x2="64.986" y2="9.089" gradientUnits="userSpaceOnUse"><stop stop-color="#1D2D4A"/><stop offset="1" stop-color="#28426F"/></linearGradient><linearGradient id="j7mbbif2em" x1="1.716" y1="-8.914" x2="43.989" y2="60.553" gradientUnits="userSpaceOnUse"><stop stop-color="#365A8A"/><stop offset="1" stop-color="#2E4469"/></linearGradient><linearGradient id="p5s821jpsn" x1=".931" y1="21.352" x2="-8.383" y2="4.776" gradientUnits="userSpaceOnUse"><stop stop-color="#31517D"/><stop offset=".984" stop-color="#152137"/></linearGradient><linearGradient id="4145j1dn7q" x1="63.639" y1="41.498" x2="64.132" y2="36.778" gradientUnits="userSpaceOnUse"><stop stop-color="#31517D"/><stop offset=".984" stop-color="#152137"/></linearGradient><linearGradient id="8ycls5bdvw" x1="-1.665" y1="13.707" x2="6.74" y2="14.858" gradientUnits="userSpaceOnUse"><stop stop-color="#375A8A"/><stop offset="1" stop-color="#142239"/></linearGradient><linearGradient id="jnbifpci3x" x1="106.866" y1="41.152" x2="95.598" y2="25.262" gradientUnits="userSpaceOnUse"><stop stop-color="#365A8A"/><stop offset="1" stop-color="#2E4469"/></linearGradient><linearGradient id="jjbxq8oxky" x1="123.924" y1="56.015" x2="124.334" y2="34.972" gradientUnits="userSpaceOnUse"><stop stop-color="#5B79A2"/><stop offset="1" stop-color="#182439"/></linearGradient><linearGradient id="veq8e3mr1z" x1="12.384" y1="12.293" x2="-7.403" y2="14.705" gradientUnits="userSpaceOnUse"><stop stop-color="#365A8A"/><stop offset="1" stop-color="#20314E"/></linearGradient><linearGradient id="bpu3iebemB" x1="63.781" y1="27.153" x2="64.027" y2="39.744" gradientUnits="userSpaceOnUse"><stop stop-color="#5B79A2"/><stop offset="1" stop-color="#182439"/></linearGradient><linearGradient id="wxjmvx3xtC" x1="93.343" y1="49.403" x2="93.753" y2="28.359" gradientUnits="userSpaceOnUse"><stop stop-color="#5B79A2"/><stop offset="1" stop-color="#182439"/></linearGradient><linearGradient id="t3ytc37emD" x1="8.996" y1="3.024" x2="9.362" y2="19.565" gradientUnits="userSpaceOnUse"><stop stop-color="#365A8A"/><stop offset="1" stop-color="#20314E"/></linearGradient><linearGradient id="k0gmy2oisG" x1=".931" y1="21.352" x2="-8.383" y2="4.776" gradientUnits="userSpaceOnUse"><stop stop-color="#31517D"/><stop offset=".984" stop-color="#152137"/></linearGradient><linearGradient id="w79ok5rz6J" x1="73.295" y1="81.114" x2="73.788" y2="76.395" gradientUnits="userSpaceOnUse"><stop stop-color="#31517D"/><stop offset=".984" stop-color="#152137"/></linearGradient><linearGradient id="jx0b0pwd6K" x1="-1.665" y1="13.707" x2="6.74" y2="14.858" gradientUnits="userSpaceOnUse"><stop stop-color="#375A8A"/><stop offset="1" stop-color="#142239"/></linearGradient><linearGradient id="qgdq37r5aL" x1="13.927" y1="79.669" x2="25.503" y2="95.335" gradientUnits="userSpaceOnUse"><stop stop-color="#365A8A"/><stop offset="1" stop-color="#2E4469"/></linearGradient><linearGradient id="dau3exthtM" x1="53.981" y1="96.459" x2="54.391" y2="75.415" gradientUnits="userSpaceOnUse"><stop stop-color="#5B79A2"/><stop offset="1" stop-color="#182439"/></linearGradient><linearGradient id="ve07eqxr2N" x1="13.465" y1="13.156" x2="-3.562" y2="15.289" gradientUnits="userSpaceOnUse"><stop stop-color="#365A8A"/><stop offset="1" stop-color="#20314E"/></linearGradient><linearGradient id="4gqndixsxP" x1="28.962" y1="77.37" x2="29.207" y2="89.961" gradientUnits="userSpaceOnUse"><stop stop-color="#5B79A2"/><stop offset="1" stop-color="#182439"/></linearGradient><linearGradient id="3eejopgpsQ" x1="85.225" y1="102.866" x2="85.635" y2="81.823" gradientUnits="userSpaceOnUse"><stop stop-color="#5B79A2"/><stop offset="1" stop-color="#182439"/></linearGradient><linearGradient id="bfndzk6kzR" x1="8.996" y1="3.024" x2="9.362" y2="19.565" gradientUnits="userSpaceOnUse"><stop stop-color="#365A8A"/><stop offset="1" stop-color="#20314E"/></linearGradient><linearGradient id="mpbz2gdpoab" x1="34.613" y1="54.387" x2="18.745" y2="36.197" gradientUnits="userSpaceOnUse"><stop stop-color="#8B60ED"/><stop offset="1" stop-color="#8B60ED" stop-opacity="0"/></linearGradient><linearGradient id="1kb2ioab8ae" x1="36.437" y1="49.035" x2="36.437" y2="44.543" gradientUnits="userSpaceOnUse"><stop stop-color="#A987F7"/><stop offset="1" stop-color="#B372BD"/></linearGradient><linearGradient id="xaf0fyk1kaf" x1="38.12" y1="77.244" x2="38.12" y2="72.004" gradientUnits="userSpaceOnUse"><stop stop-color="#A987F7"/><stop offset="1" stop-color="#B372BD"/></linearGradient><linearGradient id="e0q5oclulag" x1="19.955" y1="76.428" x2="-.728" y2="91.124" gradientUnits="userSpaceOnUse"><stop stop-color="#365A8A"/><stop offset="1" stop-color="#20314E"/></linearGradient><linearGradient id="i2j4ifrayah" x1="103.571" y1="37.701" x2="111.346" y2="28.123" gradientUnits="userSpaceOnUse"><stop stop-color="#365A8A"/><stop offset="1" stop-color="#2E4469"/></linearGradient><radialGradient id="sh0jamjeea" cx="0" cy="0" r="1" gradientUnits="userSpaceOnUse" gradientTransform="matrix(0 120 -120 0 60 0)"><stop stop-color="#263A5E"/><stop offset="1" stop-color="#0C1321"/></radialGradient><radialGradient id="fqyqq0opmd" cx="0" cy="0" r="1" gradientUnits="userSpaceOnUse" gradientTransform="rotate(94.939 3.442 56.979) scale(23.6413)"><stop stop-color="#192841"/><stop offset="1" stop-color="#101A2A"/></radialGradient><radialGradient id="79rw7t9ycg" cx="0" cy="0" r="1" gradientUnits="userSpaceOnUse" gradientTransform="rotate(90 46.921 13.166) scale(124.234)"><stop stop-color="#3B6099"/><stop offset="1" stop-color="#101A2A"/></radialGradient><radialGradient id="2ck8924lki" cx="0" cy="0" r="1" gradientUnits="userSpaceOnUse" gradientTransform="rotate(53.478 -29.442 89.69) scale(33.4103)"><stop stop-color="#7C74CC"/><stop offset="1" stop-color="#101C30" stop-opacity=".38"/></radialGradient><radialGradient id="9rpgxclmzk" cx="0" cy="0" r="1" gradientUnits="userSpaceOnUse" gradientTransform="matrix(18.2743 0 0 10.0567 78.316 99.779)"><stop stop-color="#0F1827"/><stop offset="1" stop-color="#0F1827" stop-opacity=".01"/></radialGradient><radialGradient id="09qooes9zl" cx="0" cy="0" r="1" gradientUnits="userSpaceOnUse" gradientTransform="matrix(18.2743 0 0 10.0567 44.066 16.18)"><stop stop-color="#0F1827"/><stop offset="1" stop-color="#0F1827" stop-opacity=".01"/></radialGradient><radialGradient id="pgn207o6tp" cx="0" cy="0" r="1" gradientUnits="userSpaceOnUse" gradientTransform="scale(23.479 20.3583)"><stop stop-color="#fff"/><stop offset="1" stop-color="#BF67F0"/></radialGradient><radialGradient id="lvsc64dyyr" cx="0" cy="0" r="1" gradientUnits="userSpaceOnUse" gradientTransform="matrix(8.9015 0 0 14.1962 98.5 39.976)"><stop stop-color="#0F1827"/><stop offset="1" stop-color="#0F1827" stop-opacity=".01"/></radialGradient><radialGradient id="9qbqfl4pds" cx="0" cy="0" r="1" gradientUnits="userSpaceOnUse" gradientTransform="matrix(8.85313 0 0 18.4319 74.234 30.512)"><stop stop-color="#0F1827"/><stop offset="1" stop-color="#0F1827" stop-opacity=".01"/></radialGradient><radialGradient id="h50ifrju3t" cx="0" cy="0" r="1" gradientUnits="userSpaceOnUse" gradientTransform="matrix(8.85313 0 0 18.4319 28.953 88.276)"><stop stop-color="#0F1827"/><stop offset="1" stop-color="#0F1827" stop-opacity=".01"/></radialGradient><radialGradient id="v9i0cp1oyu" cx="0" cy="0" r="1" gradientUnits="userSpaceOnUse" gradientTransform="matrix(9.9584 0 0 10.0567 62.496 97.805)"><stop stop-color="#0F1827"/><stop offset="1" stop-color="#0F1827" stop-opacity=".01"/></radialGradient><radialGradient id="34su81t39v" cx="0" cy="0" r="1" gradientUnits="userSpaceOnUse" gradientTransform="matrix(8.9015 0 0 9.28853 13.957 75.244)"><stop stop-color="#0F1827"/><stop offset="1" stop-color="#0F1827" stop-opacity=".01"/></radialGradient><radialGradient id="1xj2i31g8A" cx="0" cy="0" r="1" gradientUnits="userSpaceOnUse" gradientTransform="matrix(8.90151 0 0 10.9105 64.663 25.674)"><stop stop-color="#0F1827"/><stop offset="1" stop-color="#0F1827" stop-opacity=".01"/></radialGradient><radialGradient id="018bvil7eF" cx="0" cy="0" r="1" gradientUnits="userSpaceOnUse" gradientTransform="translate(59.13 23.225) scale(15.5728)"><stop stop-color="#fff"/><stop offset="1" stop-color="#BF67F0"/></radialGradient><radialGradient id="tw1hkkne9I" cx="0" cy="0" r="1" gradientUnits="userSpaceOnUse" gradientTransform="scale(23.479 21.698)"><stop stop-color="#fff"/><stop offset="1" stop-color="#BF67F0"/></radialGradient><radialGradient id="tyw5pqvacO" cx="0" cy="0" r="1" gradientUnits="userSpaceOnUse" gradientTransform="matrix(8.90151 0 0 10.5007 56.536 95.124)"><stop stop-color="#0F1827"/><stop offset="1" stop-color="#0F1827" stop-opacity=".01"/></radialGradient><radialGradient id="w4k8e1lonT" cx="0" cy="0" r="1" gradientUnits="userSpaceOnUse" gradientTransform="translate(57.94 92.677) scale(15.5728)"><stop stop-color="#fff"/><stop offset="1" stop-color="#BF67F0"/></radialGradient><radialGradient id="2w2u7sna6V" cx="0" cy="0" r="1" gradientUnits="userSpaceOnUse" gradientTransform="matrix(85.2259 0 0 86.6112 50.61 47.092)"><stop stop-color="#fff"/><stop offset="1" stop-color="#BF67F0"/></radialGradient><radialGradient id="jaru93tgxac" cx="0" cy="0" r="1" gradientUnits="userSpaceOnUse" gradientTransform="rotate(15.559 -208.618 252.764) scale(4.34527)"><stop stop-color="#BC5AEC"/><stop offset="1" stop-color="#632F7C" stop-opacity=".01"/></radialGradient><radialGradient id="jy2qd08qvad" cx="0" cy="0" r="1" gradientUnits="userSpaceOnUse" gradientTransform="translate(57.734 62.698) scale(16.047)"><stop stop-color="#fff"/><stop offset="1" stop-color="#BF67F0"/></radialGradient><filter id="ncal7fkgdo" x="53.612" y="37.182" width="13.809" height="13.013" filterUnits="userSpaceOnUse" color-interpolation-filters="sRGB"><feFlood flood-opacity="0" result="BackgroundImageFix"/><feColorMatrix in="SourceAlpha" values="0 0 0 0 0 0 0 0 0 0 0 0 0 0 0 0 0 0 127 0" result="hardAlpha"/><feOffset/><feGaussianBlur stdDeviation="1.935"/><feComposite in2="hardAlpha" operator="out"/><feColorMatrix values="0 0 0 0 0.717113 0 0 0 0 0.419688 0 0 0 0 0.9875 0 0 0 1 0"/><feBlend in2="BackgroundImageFix" result="effect1_dropShadow_1129_28137"/><feBlend in="SourceGraphic" in2="effect1_dropShadow_1129_28137" result="shape"/></filter><filter id="op0s0le12E" x="55.259" y="19.355" width="11.766" height="11.766" filterUnits="userSpaceOnUse" color-interpolation-filters="sRGB"><feFlood flood-opacity="0" result="BackgroundImageFix"/><feColorMatrix in="SourceAlpha" values="0 0 0 0 0 0 0 0 0 0 0 0 0 0 0 0 0 0 127 0" result="hardAlpha"/><feOffset/><feGaussianBlur stdDeviation="1.935"/><feComposite in2="hardAlpha" operator="out"/><feColorMatrix values="0 0 0 0 0.717113 0 0 0 0 0.419688 0 0 0 0 0.9875 0 0 0 1 0"/><feBlend in2="BackgroundImageFix" result="effect1_dropShadow_1129_28137"/><feBlend in="SourceGraphic" in2="effect1_dropShadow_1129_28137" result="shape"/></filter><filter id="6i2whjuxzH" x="53.301" y="67.806" width="13.809" height="13.355" filterUnits="userSpaceOnUse" color-interpolation-filters="sRGB"><feFlood flood-opacity="0" result="BackgroundImageFix"/><feColorMatrix in="SourceAlpha" values="0 0 0 0 0 0 0 0 0 0 0 0 0 0 0 0 0 0 127 0" result="hardAlpha"/><feOffset/><feGaussianBlur stdDeviation="1.935"/><feComposite in2="hardAlpha" operator="out"/><feColorMatrix values="0 0 0 0 0.717113 0 0 0 0 0.419688 0 0 0 0 0.9875 0 0 0 1 0"/><feBlend in2="BackgroundImageFix" result="effect1_dropShadow_1129_28137"/><feBlend in="SourceGraphic" in2="effect1_dropShadow_1129_28137" result="shape"/></filter><filter id="pyppvyaigS" x="54.07" y="88.806" width="11.766" height="11.766" filterUnits="userSpaceOnUse" color-interpolation-filters="sRGB"><feFlood flood-opacity="0" result="BackgroundImageFix"/><feColorMatrix in="SourceAlpha" values="0 0 0 0 0 0 0 0 0 0 0 0 0 0 0 0 0 0 127 0" result="hardAlpha"/><feOffset/><feGaussianBlur stdDeviation="1.935"/><feComposite in2="hardAlpha" operator="out"/><feColorMatrix values="0 0 0 0 0.717113 0 0 0 0 0.419688 0 0 0 0 0.9875 0 0 0 1 0"/><feBlend in2="BackgroundImageFix" result="effect1_dropShadow_1129_28137"/><feBlend in="SourceGraphic" in2="effect1_dropShadow_1129_28137" result="shape"/></filter><filter id="lgz38dfo8U" x="45.191" y="41.674" width="32.864" height="33.223" filterUnits="userSpaceOnUse" color-interpolation-filters="sRGB"><feFlood flood-opacity="0" result="BackgroundImageFix"/><feColorMatrix in="SourceAlpha" values="0 0 0 0 0 0 0 0 0 0 0 0 0 0 0 0 0 0 127 0" result="hardAlpha"/><feOffset/><feGaussianBlur stdDeviation="2.709"/><feComposite in2="hardAlpha" operator="out"/><feColorMatrix values="0 0 0 0 0.717113 0 0 0 0 0.419688 0 0 0 0 0.9875 0 0 0 1 0"/><feBlend in2="BackgroundImageFix" result="effect1_dropShadow_1129_28137"/><feBlend in="SourceGraphic" in2="effect1_dropShadow_1129_28137" result="shape"/></filter><filter id="tjnz2bdk0W" x="22.014" y="35.815" width="5.545" height="5.709" filterUnits="userSpaceOnUse" color-interpolation-filters="sRGB"><feFlood flood-opacity="0" result="BackgroundImageFix"/><feColorMatrix in="SourceAlpha" values="0 0 0 0 0 0 0 0 0 0 0 0 0 0 0 0 0 0 127 0" result="hardAlpha"/><feOffset/><feGaussianBlur stdDeviation=".956"/><feComposite in2="hardAlpha" operator="out"/><feColorMatrix values="0 0 0 0 0.227451 0 0 0 0 0.745098 0 0 0 0 0.631373 0 0 0 1 0"/><feBlend in2="BackgroundImageFix" result="effect1_dropShadow_1129_28137"/><feBlend in="SourceGraphic" in2="effect1_dropShadow_1129_28137" result="shape"/></filter><filter id="td7oryaywX" x="18.246" y="40.024" width="7.637" height="7.975" filterUnits="userSpaceOnUse" color-interpolation-filters="sRGB"><feFlood flood-opacity="0" result="BackgroundImageFix"/><feColorMatrix in="SourceAlpha" values="0 0 0 0 0 0 0 0 0 0 0 0 0 0 0 0 0 0 127 0" result="hardAlpha"/><feOffset/><feGaussianBlur stdDeviation="1.434"/><feComposite in2="hardAlpha" operator="out"/><feColorMatrix values="0 0 0 0 0.952941 0 0 0 0 0.282353 0 0 0 0 0.47451 0 0 0 1 0"/><feBlend in2="BackgroundImageFix" result="effect1_dropShadow_1129_28137"/><feBlend in="SourceGraphic" in2="effect1_dropShadow_1129_28137" result="shape"/></filter><filter id="vewl78tbgY" x="19.651" y="37.265" width="7.637" height="7.975" filterUnits="userSpaceOnUse" color-interpolation-filters="sRGB"><feFlood flood-opacity="0" result="BackgroundImageFix"/><feColorMatrix in="SourceAlpha" values="0 0 0 0 0 0 0 0 0 0 0 0 0 0 0 0 0 0 127 0" result="hardAlpha"/><feOffset/><feGaussianBlur stdDeviation="1.434"/><feComposite in2="hardAlpha" operator="out"/><feColorMatrix values="0 0 0 0 0.956863 0 0 0 0 0.635294 0 0 0 0 0.12549 0 0 0 1 0"/><feBlend in2="BackgroundImageFix" result="effect1_dropShadow_1129_28137"/><feBlend in="SourceGraphic" in2="effect1_dropShadow_1129_28137" result="shape"/></filter><filter id="d0s31fuh3Z" x="91.874" y="76.278" width="8.098" height="8.428" filterUnits="userSpaceOnUse" color-interpolation-filters="sRGB"><feFlood flood-opacity="0" result="BackgroundImageFix"/><feColorMatrix in="SourceAlpha" values="0 0 0 0 0 0 0 0 0 0 0 0 0 0 0 0 0 0 127 0" result="hardAlpha"/><feOffset/><feGaussianBlur stdDeviation="1.548"/><feColorMatrix values="0 0 0 0 0.752051 0 0 0 0 0.222882 0 0 0 0 0.965325 0 0 0 1 0"/><feBlend in2="BackgroundImageFix" result="effect1_dropShadow_1129_28137"/><feBlend in="SourceGraphic" in2="effect1_dropShadow_1129_28137" result="shape"/></filter><filter id="9acj2siruaa" x="95.236" y="75.464" width="4.228" height="4.557" filterUnits="userSpaceOnUse" color-interpolation-filters="sRGB"><feFlood flood-opacity="0" result="BackgroundImageFix"/><feColorMatrix in="SourceAlpha" values="0 0 0 0 0 0 0 0 0 0 0 0 0 0 0 0 0 0 127 0" result="hardAlpha"/><feOffset/><feGaussianBlur stdDeviation=".581"/><feComposite in2="hardAlpha" operator="out"/><feColorMatrix values="0 0 0 0 0.215686 0 0 0 0 0.772549 0 0 0 0 0.980392 0 0 0 1 0"/><feBlend in2="BackgroundImageFix" result="effect1_dropShadow_1129_28137"/><feBlend in="SourceGraphic" in2="effect1_dropShadow_1129_28137" result="shape"/></filter></defs></svg>